<?xml version="1.0" encoding="utf-8"?>
<svg width="190" height="40" viewBox="0 0 190 40" xmlns="http://www.w3.org/2000/svg">
  <defs/>
  <g fill="none" fill-rule="evenodd">
    <polygon fill-rule="nonzero" points="35.213 11.501 35.206 6.288 25.586 0 25.586 4.022 31.931 8.2 31.936 11.402 28.988 13.398 26.977 11.931 26.977 9.446 23.7 7.204 23.7 11.727 18.505 14.915 18.495 23.335 14.822 25.403 12.937 23.926 12.937 21.488 15.169 19.959 15.169 19.939 15.169 16.166 11.152 18.854 8.081 16.856 5.276 18.693 9.659 21.694 9.659 23.536 6.5 25.674 3.277 23.492 3.277 16.23 8.062 12.991 8.066 9.875 14.203 13.827 19.361 10.394 16.216 8.559 14.159 9.947 9.677 6.983 14.731 4.036 19.11 6.603 19.11 2.775 14.736 .211 4.794 6.008 4.787 11.223 0 14.465 0 25.257 4.787 28.499 4.794 33.714 14.414 40 14.414 35.981 8.069 31.803 8.064 28.601 11.012 26.605 13.023 28.072 13.023 30.557 16.3 32.798 16.3 28.275 21.569 25.088 21.628 16.667 25.178 14.599 27.063 16.076 27.063 18.514 24.831 20.043 24.831 20.063 24.831 23.837 28.848 21.148 31.919 23.146 34.724 21.309 30.34 18.306 30.34 16.466 33.5 14.329 36.723 16.511 36.723 23.772 31.939 27.012 31.934 30.127 25.797 26.173 20.639 29.584 23.784 31.416 25.841 30.055 30.323 33.019 25.269 35.966 20.89 33.399 20.89 37.225 25.264 39.789 35.206 33.995 35.213 28.779 40 25.537 40 14.743" fill="#AC6AFF"/>
  </g>
  <path d="M 47.802 13.812 L 52.906 13.812 L 52.906 29.234 L 47.802 29.234 Z M 62.979 22.986 Q 62.979 22.216 62.583 21.776 Q 62.187 21.336 61.549 21.336 Q 60.823 21.336 60.394 21.864 Q 59.965 22.392 59.965 23.272 L 58.865 23.272 Q 58.865 21.358 59.437 19.939 Q 60.009 18.52 61.076 17.75 Q 62.143 16.98 63.617 16.98 Q 64.893 16.98 65.861 17.541 Q 66.829 18.102 67.379 19.136 Q 67.929 20.17 67.929 21.556 L 67.929 29.234 L 62.979 29.234 Z M 55.015 17.2 L 59.965 17.2 L 59.965 29.234 L 55.015 29.234 Z M 75.36 24.614 Q 75.36 25.098 75.624 25.373 Q 75.888 25.648 76.328 25.626 Q 76.548 25.626 76.878 25.538 Q 77.208 25.45 77.56 25.318 L 78.396 28.706 Q 77.802 29.058 76.867 29.256 Q 75.932 29.454 74.964 29.454 Q 73.6 29.454 72.577 28.959 Q 71.554 28.464 70.993 27.54 Q 70.432 26.616 70.432 25.362 L 70.432 14.494 L 75.36 14.494 Z M 68.782 17.86 L 78.176 17.86 L 78.176 20.984 L 68.782 20.984 Z M 86.733 22.04 Q 86.777 21.534 86.601 21.149 Q 86.425 20.764 86.095 20.544 Q 85.765 20.324 85.325 20.324 Q 84.775 20.324 84.401 20.676 Q 84.027 21.028 83.84 21.633 Q 83.653 22.238 83.653 22.986 Q 83.653 23.888 83.928 24.504 Q 84.203 25.12 84.698 25.439 Q 85.193 25.758 85.853 25.758 Q 87.151 25.758 88.295 24.68 L 90.869 27.21 Q 89.923 28.266 88.548 28.838 Q 87.173 29.41 85.413 29.41 Q 83.367 29.41 81.893 28.651 Q 80.419 27.892 79.638 26.506 Q 78.857 25.12 78.857 23.272 Q 78.857 21.358 79.66 19.961 Q 80.463 18.564 81.904 17.794 Q 83.345 17.024 85.281 17.024 Q 87.393 17.024 88.867 17.926 Q 90.341 18.828 91.078 20.467 Q 91.815 22.106 91.683 24.328 L 83.015 24.328 L 83.015 22.04 Z M 93.154 12.91 L 98.104 12.91 L 98.104 29.234 L 93.154 29.234 Z M 100.542 12.91 L 105.492 12.91 L 105.492 29.234 L 100.542 29.234 Z M 107.819 17.2 L 112.769 17.2 L 112.769 29.234 L 107.819 29.234 Z M 110.305 11.26 Q 111.405 11.26 112.109 11.964 Q 112.813 12.668 112.813 13.768 Q 112.813 14.868 112.109 15.572 Q 111.405 16.276 110.305 16.276 Q 109.205 16.276 108.501 15.572 Q 107.797 14.868 107.797 13.768 Q 107.797 12.668 108.501 11.964 Q 109.205 11.26 110.305 11.26 Z M 126.432 19.158 Q 125.662 18.696 124.672 18.278 Q 123.682 17.86 122.747 17.596 Q 121.812 17.332 121.13 17.332 Q 120.712 17.332 120.448 17.486 Q 120.184 17.64 120.184 18.014 Q 120.184 18.454 120.613 18.729 Q 121.042 19.004 121.757 19.202 Q 122.472 19.4 123.33 19.631 Q 124.188 19.862 125.035 20.203 Q 125.882 20.544 126.597 21.072 Q 127.312 21.6 127.741 22.436 Q 128.17 23.272 128.17 24.482 Q 128.17 26.22 127.268 27.331 Q 126.366 28.442 124.892 28.981 Q 123.418 29.52 121.68 29.52 Q 120.338 29.52 118.941 29.223 Q 117.544 28.926 116.268 28.365 Q 114.992 27.804 113.958 27.012 L 115.85 23.162 Q 116.642 23.844 117.72 24.394 Q 118.798 24.944 119.876 25.274 Q 120.954 25.604 121.724 25.604 Q 122.296 25.604 122.626 25.395 Q 122.956 25.186 122.956 24.746 Q 122.956 24.306 122.527 24.031 Q 122.098 23.756 121.383 23.558 Q 120.668 23.36 119.81 23.151 Q 118.952 22.942 118.105 22.623 Q 117.258 22.304 116.543 21.787 Q 115.828 21.27 115.399 20.478 Q 114.97 19.686 114.97 18.498 Q 114.97 16.936 115.784 15.792 Q 116.598 14.648 118.083 14.032 Q 119.568 13.416 121.57 13.416 Q 123.396 13.416 125.189 13.922 Q 126.982 14.428 128.28 15.264 Z M 137.184 30.07 Q 136.436 31.94 135.138 32.831 Q 133.84 33.722 131.904 33.722 Q 130.716 33.722 129.715 33.381 Q 128.714 33.04 127.746 32.314 L 129.814 29.058 Q 130.584 29.762 131.42 29.762 Q 131.86 29.762 132.146 29.608 Q 132.432 29.454 132.608 29.146 L 132.784 28.86 L 127.79 17.2 L 132.872 17.2 L 135.248 24.064 L 137.206 17.2 L 142.134 17.2 Z M 150.889 22.986 Q 150.889 22.216 150.493 21.776 Q 150.097 21.336 149.459 21.336 Q 148.733 21.336 148.304 21.864 Q 147.875 22.392 147.875 23.272 L 146.775 23.272 Q 146.775 21.358 147.347 19.939 Q 147.919 18.52 148.986 17.75 Q 150.053 16.98 151.527 16.98 Q 152.803 16.98 153.771 17.541 Q 154.739 18.102 155.289 19.136 Q 155.839 20.17 155.839 21.556 L 155.839 29.234 L 150.889 29.234 Z M 142.925 17.2 L 147.875 17.2 L 147.875 29.234 L 142.925 29.234 Z M 163.27 24.614 Q 163.27 25.098 163.534 25.373 Q 163.798 25.648 164.238 25.626 Q 164.458 25.626 164.788 25.538 Q 165.118 25.45 165.47 25.318 L 166.306 28.706 Q 165.712 29.058 164.777 29.256 Q 163.842 29.454 162.874 29.454 Q 161.51 29.454 160.487 28.959 Q 159.464 28.464 158.903 27.54 Q 158.342 26.616 158.342 25.362 L 158.342 14.494 L 163.27 14.494 Z M 156.692 17.86 L 166.086 17.86 L 166.086 20.984 L 156.692 20.984 Z M 175.721 22.986 Q 175.721 22.216 175.325 21.776 Q 174.929 21.336 174.291 21.336 Q 173.565 21.336 173.136 21.864 Q 172.707 22.392 172.707 23.272 L 171.607 23.272 Q 171.607 21.358 172.179 19.939 Q 172.751 18.52 173.818 17.75 Q 174.885 16.98 176.359 16.98 Q 177.635 16.98 178.603 17.541 Q 179.571 18.102 180.121 19.136 Q 180.671 20.17 180.671 21.556 L 180.671 29.234 L 175.721 29.234 Z M 167.757 12.91 L 172.707 12.91 L 172.707 29.234 L 167.757 29.234 Z" style="fill: rgb(255, 255, 255);"/>
</svg>